<mxfile host="app.diagrams.net" agent="Mozilla/5.0 (Windows NT 10.0; Win64; x64) AppleWebKit/537.36 (KHTML, like Gecko) Chrome/133.0.0.0 Safari/537.36 Edg/133.0.0.0" version="26.0.15">
  <diagram id="Ht1M8jgEwFfnCIfOTk4-" name="Page-1">
    <mxGraphModel dx="1715" dy="1706" grid="1" gridSize="10" guides="1" tooltips="1" connect="1" arrows="1" fold="1" page="1" pageScale="1" pageWidth="1169" pageHeight="827" math="0" shadow="0">
      <root>
        <mxCell id="0" />
        <mxCell id="1" parent="0" />
        <mxCell id="UEzPUAAOIrF-is8g5C7q-175" value="Cellborg VPC" style="points=[[0,0],[0.25,0],[0.5,0],[0.75,0],[1,0],[1,0.25],[1,0.5],[1,0.75],[1,1],[0.75,1],[0.5,1],[0.25,1],[0,1],[0,0.75],[0,0.5],[0,0.25]];outlineConnect=0;gradientColor=none;html=1;whiteSpace=wrap;fontSize=12;fontStyle=0;shape=mxgraph.aws4.group;grIcon=mxgraph.aws4.group_aws_cloud_alt;strokeColor=#232F3E;fillColor=none;verticalAlign=top;align=left;spacingLeft=30;fontColor=#232F3E;dashed=0;labelBackgroundColor=#ffffff;container=1;pointerEvents=0;collapsible=0;recursiveResize=0;" parent="1" vertex="1">
          <mxGeometry x="210" y="-800" width="741" height="609.5" as="geometry" />
        </mxCell>
        <mxCell id="D-F9KhZeyhL-YENYPI1a-5" value="" style="sketch=0;outlineConnect=0;fontColor=#232F3E;gradientColor=none;fillColor=#8C4FFF;strokeColor=none;dashed=0;verticalLabelPosition=bottom;verticalAlign=top;align=center;html=1;fontSize=12;fontStyle=0;aspect=fixed;pointerEvents=1;shape=mxgraph.aws4.vpc_virtual_private_cloud_vpc;" vertex="1" parent="UEzPUAAOIrF-is8g5C7q-175">
          <mxGeometry x="111" y="-20.5" width="48.24" height="47" as="geometry" />
        </mxCell>
        <mxCell id="D-F9KhZeyhL-YENYPI1a-3" value="IGW" style="sketch=0;outlineConnect=0;fontColor=#232F3E;gradientColor=none;fillColor=#8C4FFF;strokeColor=none;dashed=0;verticalLabelPosition=bottom;verticalAlign=top;align=center;html=1;fontSize=12;fontStyle=0;aspect=fixed;pointerEvents=1;shape=mxgraph.aws4.internet_gateway;" vertex="1" parent="UEzPUAAOIrF-is8g5C7q-175">
          <mxGeometry x="631" y="-27" width="60" height="60" as="geometry" />
        </mxCell>
        <mxCell id="D-F9KhZeyhL-YENYPI1a-7" value="" style="whiteSpace=wrap;html=1;aspect=fixed;" vertex="1" parent="UEzPUAAOIrF-is8g5C7q-175">
          <mxGeometry x="501" y="59.5" width="230" height="230" as="geometry" />
        </mxCell>
        <mxCell id="D-F9KhZeyhL-YENYPI1a-4" value="NAT Instance&amp;nbsp;&lt;div&gt;+ NGINX&lt;/div&gt;" style="sketch=0;outlineConnect=0;fontColor=#232F3E;gradientColor=none;fillColor=#8C4FFF;strokeColor=none;dashed=0;verticalLabelPosition=bottom;verticalAlign=top;align=center;html=1;fontSize=12;fontStyle=0;aspect=fixed;pointerEvents=1;shape=mxgraph.aws4.nat_gateway;" vertex="1" parent="UEzPUAAOIrF-is8g5C7q-175">
          <mxGeometry x="630.5" y="99.5" width="60.5" height="60.5" as="geometry" />
        </mxCell>
        <mxCell id="UEzPUAAOIrF-is8g5C7q-197" style="edgeStyle=orthogonalEdgeStyle;rounded=0;orthogonalLoop=1;jettySize=auto;html=1;startArrow=none;startFill=0;endArrow=open;endFill=0;strokeColor=#808080;strokeWidth=2;" parent="UEzPUAAOIrF-is8g5C7q-175" target="D-F9KhZeyhL-YENYPI1a-3" edge="1">
          <mxGeometry relative="1" as="geometry">
            <mxPoint x="661" y="99.5" as="sourcePoint" />
            <mxPoint x="637" y="79" as="targetPoint" />
          </mxGeometry>
        </mxCell>
        <mxCell id="D-F9KhZeyhL-YENYPI1a-8" value="PUBLIC Subnet" style="text;strokeColor=none;align=center;fillColor=none;html=1;verticalAlign=middle;whiteSpace=wrap;rounded=0;" vertex="1" parent="UEzPUAAOIrF-is8g5C7q-175">
          <mxGeometry x="501" y="59.5" width="94" height="30" as="geometry" />
        </mxCell>
        <mxCell id="D-F9KhZeyhL-YENYPI1a-9" value="" style="whiteSpace=wrap;html=1;aspect=fixed;" vertex="1" parent="UEzPUAAOIrF-is8g5C7q-175">
          <mxGeometry x="20" y="59.5" width="470" height="470" as="geometry" />
        </mxCell>
        <mxCell id="UEzPUAAOIrF-is8g5C7q-200" style="edgeStyle=orthogonalEdgeStyle;rounded=0;orthogonalLoop=1;jettySize=auto;html=1;startArrow=none;startFill=0;endArrow=open;endFill=0;strokeColor=#808080;strokeWidth=2;" parent="UEzPUAAOIrF-is8g5C7q-175" target="D-F9KhZeyhL-YENYPI1a-18" edge="1">
          <mxGeometry relative="1" as="geometry">
            <Array as="points" />
            <mxPoint x="302.88" y="280" as="sourcePoint" />
            <mxPoint x="372" y="350" as="targetPoint" />
          </mxGeometry>
        </mxCell>
        <mxCell id="UEzPUAAOIrF-is8g5C7q-199" style="edgeStyle=orthogonalEdgeStyle;rounded=0;orthogonalLoop=1;jettySize=auto;html=1;startArrow=none;startFill=0;endArrow=open;endFill=0;strokeColor=#808080;strokeWidth=2;" parent="UEzPUAAOIrF-is8g5C7q-175" target="D-F9KhZeyhL-YENYPI1a-15" edge="1">
          <mxGeometry relative="1" as="geometry">
            <mxPoint x="282.5" y="208" as="sourcePoint" />
            <mxPoint x="282.5" y="310" as="targetPoint" />
          </mxGeometry>
        </mxCell>
        <mxCell id="UEzPUAAOIrF-is8g5C7q-198" style="edgeStyle=orthogonalEdgeStyle;rounded=0;orthogonalLoop=1;jettySize=auto;html=1;startArrow=none;startFill=0;endArrow=open;endFill=0;strokeColor=#808080;strokeWidth=2;exitX=0;exitY=0.5;exitDx=0;exitDy=0;exitPerimeter=0;" parent="UEzPUAAOIrF-is8g5C7q-175" source="D-F9KhZeyhL-YENYPI1a-13" target="D-F9KhZeyhL-YENYPI1a-14" edge="1">
          <mxGeometry relative="1" as="geometry">
            <Array as="points" />
            <mxPoint x="360" y="50" as="sourcePoint" />
            <mxPoint x="286" y="170" as="targetPoint" />
          </mxGeometry>
        </mxCell>
        <mxCell id="UEzPUAAOIrF-is8g5C7q-195" style="edgeStyle=orthogonalEdgeStyle;rounded=0;orthogonalLoop=1;jettySize=auto;html=1;startArrow=none;startFill=0;endArrow=open;endFill=0;strokeColor=#808080;strokeWidth=2;" parent="UEzPUAAOIrF-is8g5C7q-175" source="D-F9KhZeyhL-YENYPI1a-18" target="D-F9KhZeyhL-YENYPI1a-4" edge="1">
          <mxGeometry relative="1" as="geometry">
            <mxPoint x="371.00336087341384" y="399.5" as="sourcePoint" />
            <mxPoint x="476.01" y="399.5" as="targetPoint" />
            <Array as="points">
              <mxPoint x="424" y="320" />
              <mxPoint x="424" y="324" />
              <mxPoint x="476" y="324" />
              <mxPoint x="476" y="130" />
            </Array>
          </mxGeometry>
        </mxCell>
        <mxCell id="D-F9KhZeyhL-YENYPI1a-10" value="PRIVATE Subnet" style="text;strokeColor=none;align=center;fillColor=none;html=1;verticalAlign=middle;whiteSpace=wrap;rounded=0;" vertex="1" parent="UEzPUAAOIrF-is8g5C7q-175">
          <mxGeometry x="20" y="59.5" width="94" height="30" as="geometry" />
        </mxCell>
        <mxCell id="D-F9KhZeyhL-YENYPI1a-11" value="ECS API" style="sketch=0;points=[[0,0,0],[0.25,0,0],[0.5,0,0],[0.75,0,0],[1,0,0],[0,1,0],[0.25,1,0],[0.5,1,0],[0.75,1,0],[1,1,0],[0,0.25,0],[0,0.5,0],[0,0.75,0],[1,0.25,0],[1,0.5,0],[1,0.75,0]];outlineConnect=0;fontColor=#232F3E;fillColor=#ED7100;strokeColor=#ffffff;dashed=0;verticalLabelPosition=bottom;verticalAlign=top;align=center;html=1;fontSize=12;fontStyle=0;aspect=fixed;shape=mxgraph.aws4.resourceIcon;resIcon=mxgraph.aws4.ecs;" vertex="1" parent="UEzPUAAOIrF-is8g5C7q-175">
          <mxGeometry x="360" y="200" width="50" height="50" as="geometry" />
        </mxCell>
        <mxCell id="D-F9KhZeyhL-YENYPI1a-13" value="ECS Frontend" style="sketch=0;points=[[0,0,0],[0.25,0,0],[0.5,0,0],[0.75,0,0],[1,0,0],[0,1,0],[0.25,1,0],[0.5,1,0],[0.75,1,0],[1,1,0],[0,0.25,0],[0,0.5,0],[0,0.75,0],[1,0.25,0],[1,0.5,0],[1,0.75,0]];outlineConnect=0;fontColor=#232F3E;fillColor=#ED7100;strokeColor=#ffffff;dashed=0;verticalLabelPosition=bottom;verticalAlign=top;align=center;html=1;fontSize=12;fontStyle=0;aspect=fixed;shape=mxgraph.aws4.resourceIcon;resIcon=mxgraph.aws4.ecs;" vertex="1" parent="UEzPUAAOIrF-is8g5C7q-175">
          <mxGeometry x="360" y="110" width="50" height="50" as="geometry" />
        </mxCell>
        <mxCell id="D-F9KhZeyhL-YENYPI1a-14" value="" style="sketch=0;outlineConnect=0;fontColor=#232F3E;gradientColor=none;fillColor=#ED7100;strokeColor=none;dashed=0;verticalLabelPosition=bottom;verticalAlign=top;align=center;html=1;fontSize=12;fontStyle=0;aspect=fixed;pointerEvents=1;shape=mxgraph.aws4.lambda_function;" vertex="1" parent="UEzPUAAOIrF-is8g5C7q-175">
          <mxGeometry x="259" y="160" width="48" height="48" as="geometry" />
        </mxCell>
        <mxCell id="D-F9KhZeyhL-YENYPI1a-15" value="Dynamo&lt;div&gt;privateIP table&lt;/div&gt;" style="sketch=0;points=[[0,0,0],[0.25,0,0],[0.5,0,0],[0.75,0,0],[1,0,0],[0,1,0],[0.25,1,0],[0.5,1,0],[0.75,1,0],[1,1,0],[0,0.25,0],[0,0.5,0],[0,0.75,0],[1,0.25,0],[1,0.5,0],[1,0.75,0]];outlineConnect=0;fontColor=#232F3E;fillColor=#C925D1;strokeColor=#ffffff;dashed=0;verticalLabelPosition=bottom;verticalAlign=top;align=center;html=1;fontSize=12;fontStyle=0;aspect=fixed;shape=mxgraph.aws4.resourceIcon;resIcon=mxgraph.aws4.dynamodb;" vertex="1" parent="UEzPUAAOIrF-is8g5C7q-175">
          <mxGeometry x="263.13" y="260.25" width="39.75" height="39.75" as="geometry" />
        </mxCell>
        <mxCell id="D-F9KhZeyhL-YENYPI1a-16" value="update privateIP on start/stop via cloud watch events" style="text;strokeColor=none;align=center;fillColor=none;html=1;verticalAlign=middle;whiteSpace=wrap;rounded=0;" vertex="1" parent="UEzPUAAOIrF-is8g5C7q-175">
          <mxGeometry x="238" y="89.5" width="90" height="50" as="geometry" />
        </mxCell>
        <mxCell id="D-F9KhZeyhL-YENYPI1a-17" style="edgeStyle=orthogonalEdgeStyle;rounded=0;orthogonalLoop=1;jettySize=auto;html=1;startArrow=none;startFill=0;endArrow=none;endFill=0;strokeColor=#808080;strokeWidth=2;exitX=0;exitY=0.5;exitDx=0;exitDy=0;exitPerimeter=0;" edge="1" parent="UEzPUAAOIrF-is8g5C7q-175">
          <mxGeometry relative="1" as="geometry">
            <Array as="points" />
            <mxPoint x="360" y="220" as="sourcePoint" />
            <mxPoint x="334" y="180" as="targetPoint" />
          </mxGeometry>
        </mxCell>
        <mxCell id="D-F9KhZeyhL-YENYPI1a-18" value="" style="sketch=0;outlineConnect=0;fontColor=#232F3E;gradientColor=none;fillColor=#ED7100;strokeColor=none;dashed=0;verticalLabelPosition=bottom;verticalAlign=top;align=center;html=1;fontSize=12;fontStyle=0;aspect=fixed;pointerEvents=1;shape=mxgraph.aws4.lambda_function;" vertex="1" parent="UEzPUAAOIrF-is8g5C7q-175">
          <mxGeometry x="375" y="300" width="48" height="48" as="geometry" />
        </mxCell>
        <mxCell id="D-F9KhZeyhL-YENYPI1a-19" value="update privateIP to nginx conf via SSM agent" style="text;strokeColor=none;align=center;fillColor=none;html=1;verticalAlign=middle;whiteSpace=wrap;rounded=0;" vertex="1" parent="UEzPUAAOIrF-is8g5C7q-175">
          <mxGeometry x="380" y="360" width="100" height="50" as="geometry" />
        </mxCell>
      </root>
    </mxGraphModel>
  </diagram>
</mxfile>
